<mxfile host="app.diagrams.net" modified="2024-02-14T07:05:37.921Z" agent="Mozilla/5.0 (Macintosh; Intel Mac OS X 10_15_7) AppleWebKit/537.36 (KHTML, like Gecko) Chrome/121.0.0.0 Safari/537.36" version="23.1.4" etag="OROV3YzN8K2uh0d1ujyT" type="github">
  <diagram name="Seite-1" id="l-smErelhxKianyD4io6">
    <mxGraphModel>
      <root>
        <mxCell id="0" />
        <mxCell id="1" parent="0" />
      </root>
    </mxGraphModel>
  </diagram>
</mxfile>
